<svg xmlns="http://www.w3.org/2000/svg" xmlns:xlink="http://www.w3.org/1999/xlink" width="500" zoomAndPan="magnify" viewBox="0 0 375 374.999991" height="500" preserveAspectRatio="xMidYMid meet" version="1.0"><defs><clipPath id="247f19511e"><path d="M 64 0 L 311 0 L 311 374.25 L 64 374.25 Z M 64 0 " clip-rule="nonzero"/></clipPath><clipPath id="7d2a663fbd"><path d="M 64 0 L 311 0 L 311 373.5 L 64 373.5 Z M 64 0 " clip-rule="nonzero"/></clipPath></defs><path fill="#172954" d="M 244.988281 234.847656 C 284.554688 217.261719 311.566406 193.640625 311.566406 152.972656 C 311.566406 96.855469 260.128906 50.992188 195.261719 47.753906 L 195.261719 37.894531 C 203.292969 35.128906 209.027344 27.976562 209.027344 19.5625 C 209.027344 8.757812 199.582031 -0.00390625 187.925781 -0.00390625 C 176.273438 -0.00390625 166.824219 8.757812 166.824219 19.5625 C 166.824219 27.976562 172.558594 35.125 180.59375 37.894531 L 180.59375 47.753906 C 115.726562 50.992188 64.289062 96.855469 64.289062 152.972656 C 64.289062 193.640625 91.300781 217.261719 130.863281 234.847656 C 111.921875 250.355469 99.914062 273.429688 99.914062 299.199219 C 99.914062 345.882812 139.320312 374.980469 187.925781 374.980469 C 236.535156 374.980469 275.9375 345.882812 275.9375 299.199219 C 275.941406 273.429688 263.921875 250.355469 244.988281 234.847656 Z M 127.859375 201.835938 C 81.535156 198.023438 92.929688 153.25 92.929688 153.25 C 95.722656 115.039062 109 105.324219 109 105.324219 C 139.730469 88.476562 187.925781 91.390625 187.925781 91.390625 C 187.925781 91.390625 236.125 88.476562 266.855469 105.324219 C 266.855469 105.324219 280.128906 115.039062 282.929688 153.25 C 282.929688 153.25 294.316406 198.023438 247.996094 201.835938 Z M 127.859375 201.835938 " fill-opacity="1" fill-rule="nonzero"/><path fill="#172954" d="M 91.515625 259.59375 C 91.515625 259.59375 72.960938 258.113281 65.007812 303.214844 C 65.007812 303.214844 57.964844 352.164062 88.054688 357.167969 L 95.691406 273.683594 L 98.019531 263.875 C 98.015625 263.875 97.230469 259.492188 91.515625 259.59375 Z M 91.515625 259.59375 " fill-opacity="1" fill-rule="nonzero"/><path fill="#172954" d="M 283.488281 259.59375 C 277.769531 259.492188 276.984375 263.875 276.984375 263.875 L 279.3125 273.683594 L 286.949219 357.167969 C 317.042969 352.164062 309.996094 303.214844 309.996094 303.214844 C 302.042969 258.113281 283.488281 259.59375 283.488281 259.59375 Z M 283.488281 259.59375 " fill-opacity="1" fill-rule="nonzero"/><path fill="#172954" d="M 187.925781 183.773438 C 196.820312 183.773438 204.035156 177.078125 204.035156 168.832031 L 171.816406 168.832031 C 171.816406 177.078125 179.03125 183.773438 187.925781 183.773438 Z M 187.925781 183.773438 " fill-opacity="1" fill-rule="nonzero"/><path fill="#172954" d="M 136.0625 124.722656 C 128.90625 124.722656 123.066406 129.898438 122.617188 136.429688 L 122.574219 136.429688 L 122.574219 146.328125 L 122.625 146.328125 C 123.152344 152.785156 128.964844 157.878906 136.0625 157.878906 C 143.160156 157.878906 148.972656 152.785156 149.5 146.328125 L 149.550781 146.328125 L 149.550781 136.429688 L 149.507812 136.429688 C 149.058594 129.898438 143.21875 124.722656 136.0625 124.722656 Z M 136.0625 124.722656 " fill-opacity="1" fill-rule="nonzero"/><path fill="#172954" d="M 253.230469 146.328125 L 253.28125 146.328125 L 253.28125 136.429688 L 253.234375 136.429688 C 252.785156 129.898438 246.945312 124.722656 239.792969 124.722656 C 232.636719 124.722656 226.792969 129.898438 226.34375 136.429688 L 226.300781 136.429688 L 226.300781 146.328125 L 226.351562 146.328125 C 226.882812 152.785156 232.6875 157.878906 239.792969 157.878906 C 246.890625 157.878906 252.699219 152.785156 253.230469 146.328125 Z M 253.230469 146.328125 " fill-opacity="1" fill-rule="nonzero"/><g clip-path="url(#247f19511e)"><path fill="#172954" d="M 244.523438 234.261719 C 283.988281 216.71875 310.933594 193.160156 310.933594 152.589844 C 310.933594 96.613281 259.625 50.863281 194.921875 47.632812 L 194.921875 37.800781 C 202.929688 35.042969 208.648438 27.90625 208.648438 19.515625 C 208.648438 8.734375 199.226562 -0.00390625 187.605469 -0.00390625 C 175.976562 -0.00390625 166.554688 8.734375 166.554688 19.515625 C 166.554688 27.90625 172.273438 35.039062 180.289062 37.800781 L 180.289062 47.632812 C 115.582031 50.863281 64.277344 96.613281 64.277344 152.589844 C 64.277344 193.160156 91.21875 216.71875 130.683594 234.261719 C 111.789062 249.730469 99.8125 272.746094 99.8125 298.453125 C 99.8125 345.019531 139.117188 374.042969 187.601562 374.042969 C 236.089844 374.042969 275.394531 345.019531 275.394531 298.453125 C 275.394531 272.746094 263.410156 249.730469 244.523438 234.261719 Z M 127.6875 201.328125 C 81.480469 197.53125 92.84375 152.867188 92.84375 152.867188 C 95.632812 114.753906 108.871094 105.0625 108.871094 105.0625 C 139.527344 88.253906 187.605469 91.164062 187.605469 91.164062 C 187.605469 91.164062 235.683594 88.253906 266.335938 105.0625 C 266.335938 105.0625 279.574219 114.753906 282.367188 152.867188 C 282.367188 152.867188 293.726562 197.53125 247.523438 201.328125 Z M 127.6875 201.328125 " fill-opacity="1" fill-rule="nonzero"/></g><path fill="#172954" d="M 91.433594 258.945312 C 91.433594 258.945312 72.925781 257.46875 64.992188 302.457031 C 64.992188 302.457031 57.964844 351.28125 87.980469 356.273438 L 95.597656 272.996094 L 97.917969 263.214844 C 97.917969 263.214844 97.136719 258.84375 91.433594 258.945312 Z M 91.433594 258.945312 " fill-opacity="1" fill-rule="nonzero"/><path fill="#172954" d="M 282.925781 258.945312 C 277.222656 258.84375 276.4375 263.214844 276.4375 263.214844 L 278.761719 272.996094 L 286.378906 356.273438 C 316.394531 351.28125 309.371094 302.457031 309.371094 302.457031 C 301.433594 257.46875 282.925781 258.945312 282.925781 258.945312 Z M 282.925781 258.945312 " fill-opacity="1" fill-rule="nonzero"/><path fill="#172954" d="M 187.601562 183.3125 C 196.476562 183.3125 203.671875 176.636719 203.671875 168.40625 L 171.535156 168.40625 C 171.535156 176.636719 178.730469 183.3125 187.601562 183.3125 Z M 187.601562 183.3125 " fill-opacity="1" fill-rule="nonzero"/><path fill="#172954" d="M 135.871094 124.410156 C 128.730469 124.410156 122.90625 129.574219 122.457031 136.089844 L 122.414062 136.089844 L 122.414062 145.964844 L 122.464844 145.964844 C 122.992188 152.402344 128.789062 157.484375 135.871094 157.484375 C 142.949219 157.484375 148.746094 152.402344 149.273438 145.964844 L 149.324219 145.964844 L 149.324219 136.089844 L 149.28125 136.089844 C 148.832031 129.574219 143.007812 124.410156 135.871094 124.410156 Z M 135.871094 124.410156 " fill-opacity="1" fill-rule="nonzero"/><path fill="#172954" d="M 252.746094 145.964844 L 252.792969 145.964844 L 252.792969 136.089844 L 252.75 136.089844 C 252.300781 129.574219 246.476562 124.410156 239.339844 124.410156 C 232.199219 124.410156 226.371094 129.574219 225.925781 136.089844 L 225.878906 136.089844 L 225.878906 145.964844 L 225.933594 145.964844 C 226.460938 152.402344 232.253906 157.484375 239.339844 157.484375 C 246.417969 157.484375 252.214844 152.402344 252.746094 145.964844 Z M 252.746094 145.964844 " fill-opacity="1" fill-rule="nonzero"/><g clip-path="url(#7d2a663fbd)"><path fill="#172954" d="M 244.699219 233.679688 C 284.070312 216.183594 310.945312 192.679688 310.945312 152.210938 C 310.945312 96.371094 259.765625 50.738281 195.222656 47.515625 L 195.222656 37.707031 C 203.214844 34.953125 208.917969 27.835938 208.917969 19.464844 C 208.917969 8.714844 199.519531 -0.00390625 187.921875 -0.00390625 C 176.328125 -0.00390625 166.925781 8.714844 166.925781 19.464844 C 166.925781 27.835938 172.632812 34.949219 180.625 37.707031 L 180.625 47.515625 C 116.082031 50.738281 64.902344 96.371094 64.902344 152.210938 C 64.902344 192.679688 91.777344 216.183594 131.144531 233.679688 C 112.296875 249.113281 100.347656 272.070312 100.347656 297.714844 C 100.347656 344.164062 139.558594 373.117188 187.921875 373.117188 C 236.289062 373.117188 275.496094 344.164062 275.496094 297.714844 C 275.5 272.070312 263.542969 249.113281 244.699219 233.679688 Z M 128.15625 200.832031 C 82.0625 197.039062 93.394531 152.488281 93.394531 152.488281 C 96.179688 114.46875 109.386719 104.800781 109.386719 104.800781 C 139.964844 88.035156 187.921875 90.9375 187.921875 90.9375 C 187.921875 90.9375 235.882812 88.035156 266.457031 104.800781 C 266.457031 104.800781 279.667969 114.46875 282.453125 152.488281 C 282.453125 152.488281 293.785156 197.039062 247.695312 200.832031 Z M 128.15625 200.832031 " fill-opacity="1" fill-rule="nonzero"/></g><path fill="#172954" d="M 91.992188 258.304688 C 91.992188 258.304688 73.527344 256.832031 65.613281 301.707031 C 65.613281 301.707031 58.605469 350.414062 88.546875 355.394531 L 96.144531 272.320312 L 98.460938 262.566406 C 98.460938 262.566406 97.679688 258.203125 91.992188 258.304688 Z M 91.992188 258.304688 " fill-opacity="1" fill-rule="nonzero"/><path fill="#172954" d="M 283.011719 258.304688 C 277.320312 258.203125 276.539062 262.566406 276.539062 262.566406 L 278.855469 272.320312 L 286.453125 355.394531 C 316.398438 350.414062 309.386719 301.707031 309.386719 301.707031 C 301.472656 256.832031 283.011719 258.304688 283.011719 258.304688 Z M 283.011719 258.304688 " fill-opacity="1" fill-rule="nonzero"/><path fill="#172954" d="M 187.921875 182.859375 C 196.773438 182.859375 203.953125 176.199219 203.953125 167.992188 L 171.894531 167.992188 C 171.894531 176.199219 179.070312 182.859375 187.921875 182.859375 Z M 187.921875 182.859375 " fill-opacity="1" fill-rule="nonzero"/><path fill="#172954" d="M 136.316406 124.101562 C 129.195312 124.101562 123.386719 129.25 122.9375 135.753906 L 122.894531 135.753906 L 122.894531 145.601562 L 122.945312 145.601562 C 123.472656 152.027344 129.253906 157.09375 136.316406 157.09375 C 143.378906 157.09375 149.160156 152.027344 149.6875 145.601562 L 149.738281 145.601562 L 149.738281 135.753906 L 149.695312 135.753906 C 149.246094 129.25 143.4375 124.101562 136.316406 124.101562 Z M 136.316406 124.101562 " fill-opacity="1" fill-rule="nonzero"/><path fill="#172954" d="M 252.902344 145.601562 L 252.953125 145.601562 L 252.953125 135.753906 L 252.90625 135.753906 C 252.460938 129.25 246.648438 124.101562 239.53125 124.101562 C 232.410156 124.101562 226.597656 129.25 226.148438 135.753906 L 226.105469 135.753906 L 226.105469 145.601562 L 226.160156 145.601562 C 226.6875 152.027344 232.460938 157.09375 239.53125 157.09375 C 246.59375 157.09375 252.375 152.027344 252.902344 145.601562 Z M 252.902344 145.601562 " fill-opacity="1" fill-rule="nonzero"/></svg>