<svg xmlns="http://www.w3.org/2000/svg" xmlns:xlink="http://www.w3.org/1999/xlink" width="700" zoomAndPan="magnify" viewBox="0 0 525 202.499994" height="270" preserveAspectRatio="xMidYMid meet" version="1.0"><defs><g/><clipPath id="62608c1185"><path d="M 62 0 L 196 0 L 196 201.253906 L 62 201.253906 Z M 62 0 " clip-rule="nonzero"/></clipPath></defs><g clip-path="url(#62608c1185)"><path fill="#172954" d="M 159.351562 125.921875 C 180.5625 116.492188 195.046875 103.828125 195.046875 82.019531 C 195.046875 51.929688 167.46875 27.339844 132.6875 25.605469 L 132.6875 20.316406 C 136.996094 18.835938 140.066406 15 140.066406 10.488281 C 140.066406 4.695312 135.003906 0 128.753906 0 C 122.507812 0 117.441406 4.695312 117.441406 10.488281 C 117.441406 15 120.515625 18.832031 124.824219 20.316406 L 124.824219 25.605469 C 90.042969 27.339844 62.464844 51.929688 62.464844 82.019531 C 62.464844 103.828125 76.945312 116.492188 98.160156 125.921875 C 88.003906 134.234375 81.566406 146.605469 81.566406 160.421875 C 81.566406 185.453125 102.695312 201.054688 128.753906 201.054688 C 154.816406 201.054688 175.945312 185.453125 175.945312 160.421875 C 175.945312 146.605469 169.503906 134.234375 159.351562 125.921875 Z M 96.546875 108.21875 C 71.710938 106.175781 77.820312 82.167969 77.820312 82.167969 C 79.320312 61.679688 86.4375 56.472656 86.4375 56.472656 C 102.914062 47.4375 128.753906 49.003906 128.753906 49.003906 C 128.753906 49.003906 154.597656 47.4375 171.074219 56.472656 C 171.074219 56.472656 178.191406 61.679688 179.691406 82.167969 C 179.691406 82.167969 185.800781 106.175781 160.964844 108.21875 Z M 96.546875 108.21875 " fill-opacity="1" fill-rule="nonzero"/></g><path fill="#172954" d="M 77.0625 139.1875 C 77.0625 139.1875 67.113281 138.394531 62.847656 162.578125 C 62.847656 162.578125 59.074219 188.820312 75.207031 191.503906 L 79.300781 146.742188 L 80.546875 141.484375 C 80.546875 141.484375 80.125 139.132812 77.0625 139.1875 Z M 77.0625 139.1875 " fill-opacity="1" fill-rule="nonzero"/><path fill="#172954" d="M 179.992188 139.1875 C 176.925781 139.132812 176.503906 141.484375 176.503906 141.484375 L 177.753906 146.742188 L 181.847656 191.503906 C 197.984375 188.820312 194.207031 162.578125 194.207031 162.578125 C 189.941406 138.394531 179.992188 139.1875 179.992188 139.1875 Z M 179.992188 139.1875 " fill-opacity="1" fill-rule="nonzero"/><path fill="#172954" d="M 128.753906 98.535156 C 133.523438 98.535156 137.390625 94.945312 137.390625 90.523438 L 120.117188 90.523438 C 120.117188 94.945312 123.984375 98.535156 128.753906 98.535156 Z M 128.753906 98.535156 " fill-opacity="1" fill-rule="nonzero"/><path fill="#172954" d="M 100.945312 66.871094 C 97.109375 66.871094 93.980469 69.648438 93.738281 73.152344 L 93.714844 73.152344 L 93.714844 78.457031 L 93.742188 78.457031 C 94.027344 81.917969 97.140625 84.648438 100.945312 84.648438 C 104.753906 84.648438 107.867188 81.917969 108.152344 78.457031 L 108.179688 78.457031 L 108.179688 73.152344 L 108.15625 73.152344 C 107.914062 69.648438 104.785156 66.871094 100.945312 66.871094 Z M 100.945312 66.871094 " fill-opacity="1" fill-rule="nonzero"/><path fill="#172954" d="M 163.769531 78.457031 L 163.796875 78.457031 L 163.796875 73.152344 L 163.773438 73.152344 C 163.53125 69.648438 160.398438 66.871094 156.5625 66.871094 C 152.726562 66.871094 149.59375 69.648438 149.355469 73.152344 L 149.328125 73.152344 L 149.328125 78.457031 L 149.359375 78.457031 C 149.644531 81.917969 152.753906 84.648438 156.5625 84.648438 C 160.371094 84.648438 163.484375 81.921875 163.769531 78.457031 Z M 163.769531 78.457031 " fill-opacity="1" fill-rule="nonzero"/><g fill="#172954" fill-opacity="1"><g transform="translate(210.088594, 79.865949)"><g><path d="M 12.78125 0 L 3.203125 0 L 3.203125 -40.8125 L 22.46875 -40.8125 C 24.957031 -40.8125 27.171875 -40.398438 29.109375 -39.578125 C 31.054688 -38.753906 32.582031 -37.441406 33.6875 -35.640625 C 34.800781 -33.847656 35.359375 -31.46875 35.359375 -28.5 C 35.359375 -25.832031 34.800781 -23.539062 33.6875 -21.625 C 32.582031 -19.71875 31.054688 -18.253906 29.109375 -17.234375 C 27.171875 -16.222656 24.957031 -15.71875 22.46875 -15.71875 L 12.78125 -15.71875 Z M 12.78125 -32.25 L 12.78125 -24.015625 L 21.125 -24.015625 C 24.300781 -24.015625 25.890625 -25.40625 25.890625 -28.1875 C 25.890625 -30.894531 24.300781 -32.25 21.125 -32.25 Z M 12.78125 -32.25 "/></g></g></g><g fill="#172954" fill-opacity="1"><g transform="translate(241.797967, 79.865949)"><g><path d="M 11.71875 0.640625 C 9.894531 0.640625 8.234375 0.300781 6.734375 -0.375 C 5.242188 -1.050781 4.039062 -2.066406 3.125 -3.421875 C 2.21875 -4.773438 1.765625 -6.46875 1.765625 -8.5 C 1.765625 -10.320312 2.117188 -11.820312 2.828125 -13 C 3.546875 -14.175781 4.457031 -15.117188 5.5625 -15.828125 C 6.632812 -16.546875 7.8125 -17.070312 9.09375 -17.40625 C 10.375 -17.75 11.585938 -18.023438 12.734375 -18.234375 L 20.59375 -19.625 C 20.488281 -21.15625 20.078125 -22.332031 19.359375 -23.15625 C 18.679688 -23.875 17.664062 -24.234375 16.3125 -24.234375 C 15.28125 -24.234375 14.328125 -23.882812 13.453125 -23.1875 C 12.578125 -22.488281 12.03125 -21.5 11.8125 -20.21875 L 2.890625 -20.21875 C 3.273438 -22.75 4.144531 -24.804688 5.5 -26.390625 C 6.863281 -27.984375 8.503906 -29.144531 10.421875 -29.875 C 12.347656 -30.601562 14.328125 -30.96875 16.359375 -30.96875 C 18.148438 -30.96875 19.863281 -30.722656 21.5 -30.234375 C 23.144531 -29.753906 24.570312 -29 25.78125 -27.96875 C 27.03125 -26.90625 27.910156 -25.675781 28.421875 -24.28125 C 28.941406 -22.894531 29.253906 -21.367188 29.359375 -19.703125 C 29.460938 -18.046875 29.515625 -16.273438 29.515625 -14.390625 L 29.515625 0 L 20.53125 0 L 20.53125 -3.6875 C 20.039062 -2.507812 19.332031 -1.601562 18.40625 -0.96875 C 17.507812 -0.351562 16.476562 0.0664062 15.3125 0.296875 C 14.15625 0.523438 12.957031 0.640625 11.71875 0.640625 Z M 14.328125 -6.15625 C 15.398438 -6.15625 16.488281 -6.40625 17.59375 -6.90625 C 18.84375 -7.46875 19.671875 -8.253906 20.078125 -9.265625 C 20.492188 -10.285156 20.71875 -11.617188 20.75 -13.265625 L 15.25 -12.1875 C 14.25 -12.007812 13.476562 -11.8125 12.9375 -11.59375 C 12.40625 -11.382812 11.941406 -11.101562 11.546875 -10.75 C 11.296875 -10.5 11.097656 -10.222656 10.953125 -9.921875 C 10.816406 -9.617188 10.75 -9.253906 10.75 -8.828125 C 10.75 -7.859375 11.101562 -7.171875 11.8125 -6.765625 C 12.53125 -6.359375 13.367188 -6.15625 14.328125 -6.15625 Z M 14.328125 -6.15625 "/></g></g></g><g fill="#172954" fill-opacity="1"><g transform="translate(269.122435, 79.865949)"><g><path d="M 19.6875 -30.96875 C 22.289062 -30.96875 24.578125 -30.296875 26.546875 -28.953125 C 28.523438 -27.617188 30.078125 -25.757812 31.203125 -23.375 C 32.328125 -20.988281 32.890625 -18.242188 32.890625 -15.140625 C 32.890625 -12.066406 32.328125 -9.335938 31.203125 -6.953125 C 30.078125 -4.566406 28.523438 -2.703125 26.546875 -1.359375 C 24.578125 -0.0234375 22.289062 0.640625 19.6875 0.640625 C 18.082031 0.640625 16.644531 0.375 15.375 -0.15625 C 14.113281 -0.695312 12.960938 -1.734375 11.921875 -3.265625 L 11.921875 10.484375 L 2.9375 10.484375 L 2.9375 -30.328125 L 11.921875 -30.328125 L 11.921875 -27.0625 C 12.960938 -28.59375 14.113281 -29.625 15.375 -30.15625 C 16.644531 -30.695312 18.082031 -30.96875 19.6875 -30.96875 Z M 17.171875 -23.3125 C 15.210938 -23.3125 13.613281 -22.5625 12.375 -21.0625 C 11.144531 -19.570312 10.53125 -17.597656 10.53125 -15.140625 C 10.53125 -12.710938 11.144531 -10.75 12.375 -9.25 C 13.613281 -7.75 15.210938 -7 17.171875 -7 C 19.160156 -7 20.757812 -7.753906 21.96875 -9.265625 C 23.1875 -10.785156 23.796875 -12.742188 23.796875 -15.140625 C 23.796875 -17.554688 23.1875 -19.519531 21.96875 -21.03125 C 20.757812 -22.550781 19.160156 -23.3125 17.171875 -23.3125 Z M 17.171875 -23.3125 "/></g></g></g><g fill="#172954" fill-opacity="1"><g transform="translate(299.013666, 79.865949)"><g><path d="M 13.6875 0.640625 C 8.726562 0.640625 5.46875 -1.101562 3.90625 -4.59375 C 3.582031 -5.3125 3.335938 -6.023438 3.171875 -6.734375 C 3.015625 -7.453125 2.898438 -8.328125 2.828125 -9.359375 C 2.765625 -10.390625 2.734375 -11.726562 2.734375 -13.375 L 2.734375 -30.328125 L 11.71875 -30.328125 L 11.71875 -13.265625 C 11.71875 -11.765625 11.8125 -10.585938 12 -9.734375 C 12.195312 -8.878906 12.53125 -8.203125 13 -7.703125 C 13.707031 -6.953125 14.8125 -6.578125 16.3125 -6.578125 C 17.3125 -6.578125 18.128906 -6.707031 18.765625 -6.96875 C 19.410156 -7.238281 19.929688 -7.625 20.328125 -8.125 C 21.078125 -9.125 21.453125 -10.835938 21.453125 -13.265625 L 21.453125 -30.328125 L 30.4375 -30.328125 L 30.4375 0 L 21.453125 0 L 21.453125 -3.265625 C 20.554688 -1.910156 19.492188 -0.921875 18.265625 -0.296875 C 17.035156 0.328125 15.507812 0.640625 13.6875 0.640625 Z M 13.6875 0.640625 "/></g></g></g><g fill="#172954" fill-opacity="1"><g transform="translate(327.568049, 79.865949)"><g/></g></g><g fill="#172954" fill-opacity="1"><g transform="translate(336.657662, 79.865949)"><g><path d="M 20.375 0.90625 C 18.445312 0.90625 16.429688 0.664062 14.328125 0.1875 C 12.222656 -0.289062 10.242188 -1.082031 8.390625 -2.1875 C 6.535156 -3.289062 4.992188 -4.796875 3.765625 -6.703125 C 2.535156 -8.617188 1.832031 -11.003906 1.65625 -13.859375 L 11.546875 -13.859375 C 12.015625 -12.066406 12.703125 -10.679688 13.609375 -9.703125 C 14.515625 -8.722656 15.554688 -8.046875 16.734375 -7.671875 C 17.910156 -7.296875 19.109375 -7.109375 20.328125 -7.109375 C 21.429688 -7.109375 22.460938 -7.269531 23.421875 -7.59375 C 24.390625 -7.914062 25.175781 -8.40625 25.78125 -9.0625 C 26.382812 -9.726562 26.6875 -10.59375 26.6875 -11.65625 C 26.6875 -12.726562 26.273438 -13.578125 25.453125 -14.203125 C 24.640625 -14.828125 23.550781 -15.332031 22.1875 -15.71875 C 20.832031 -16.113281 19.351562 -16.488281 17.75 -16.84375 C 16.039062 -17.238281 14.300781 -17.6875 12.53125 -18.1875 C 10.769531 -18.6875 9.148438 -19.367188 7.671875 -20.234375 C 6.191406 -21.109375 5 -22.257812 4.09375 -23.6875 C 3.1875 -25.113281 2.734375 -26.953125 2.734375 -29.203125 C 2.734375 -32.015625 3.410156 -34.335938 4.765625 -36.171875 C 6.117188 -38.015625 7.941406 -39.390625 10.234375 -40.296875 C 12.535156 -41.210938 15.078125 -41.671875 17.859375 -41.671875 C 20.710938 -41.671875 23.382812 -41.171875 25.875 -40.171875 C 28.375 -39.171875 30.460938 -37.660156 32.140625 -35.640625 C 33.816406 -33.628906 34.867188 -31.109375 35.296875 -28.078125 L 25.40625 -28.078125 C 24.9375 -29.828125 24.023438 -31.191406 22.671875 -32.171875 C 21.316406 -33.148438 19.644531 -33.640625 17.65625 -33.640625 C 16.300781 -33.640625 15.0625 -33.351562 13.9375 -32.78125 C 12.8125 -32.21875 12.25 -31.289062 12.25 -30 C 12.25 -29.039062 12.640625 -28.257812 13.421875 -27.65625 C 14.203125 -27.050781 15.253906 -26.5625 16.578125 -26.1875 C 17.898438 -25.8125 19.328125 -25.441406 20.859375 -25.078125 C 22.566406 -24.691406 24.328125 -24.238281 26.140625 -23.71875 C 27.960938 -23.195312 29.640625 -22.484375 31.171875 -21.578125 C 32.710938 -20.671875 33.953125 -19.457031 34.890625 -17.9375 C 35.835938 -16.425781 36.3125 -14.492188 36.3125 -12.140625 C 36.3125 -9.460938 35.671875 -7.148438 34.390625 -5.203125 C 33.109375 -3.265625 31.28125 -1.757812 28.90625 -0.6875 C 26.539062 0.375 23.695312 0.90625 20.375 0.90625 Z M 20.375 0.90625 "/></g></g></g><g fill="#172954" fill-opacity="1"><g transform="translate(369.917815, 79.865949)"><g><path d="M 19.46875 0 L 12.296875 0 C 10.085938 0 8.367188 -0.523438 7.140625 -1.578125 C 5.910156 -2.628906 5.296875 -4.117188 5.296875 -6.046875 L 5.296875 -23.3125 L 1.125 -23.3125 L 1.125 -30.328125 L 5.296875 -30.328125 L 5.296875 -40.8125 L 14.28125 -40.8125 L 14.28125 -30.328125 L 19.515625 -30.328125 L 19.515625 -23.3125 L 14.28125 -23.3125 L 14.28125 -9.09375 C 14.28125 -8.664062 14.382812 -8.253906 14.59375 -7.859375 C 14.8125 -7.472656 15.3125 -7.28125 16.09375 -7.28125 L 19.46875 -7.28125 Z M 19.46875 0 "/></g></g></g><g fill="#172954" fill-opacity="1"><g transform="translate(386.386927, 79.865949)"><g><path d="M 17.65625 0.640625 C 14.507812 0.640625 11.734375 -0.015625 9.328125 -1.328125 C 6.921875 -2.648438 5.050781 -4.515625 3.71875 -6.921875 C 2.382812 -9.328125 1.71875 -12.132812 1.71875 -15.34375 C 1.71875 -18.445312 2.382812 -21.164062 3.71875 -23.5 C 5.050781 -25.84375 6.910156 -27.671875 9.296875 -28.984375 C 11.691406 -30.304688 14.476562 -30.96875 17.65625 -30.96875 C 20.820312 -30.96875 23.597656 -30.304688 25.984375 -28.984375 C 28.378906 -27.671875 30.242188 -25.84375 31.578125 -23.5 C 32.921875 -21.164062 33.59375 -18.445312 33.59375 -15.34375 C 33.59375 -12.132812 32.929688 -9.335938 31.609375 -6.953125 C 30.285156 -4.566406 28.429688 -2.703125 26.046875 -1.359375 C 23.660156 -0.0234375 20.863281 0.640625 17.65625 0.640625 Z M 17.65625 -7.0625 C 19.6875 -7.0625 21.289062 -7.816406 22.46875 -9.328125 C 23.644531 -10.847656 24.234375 -12.851562 24.234375 -15.34375 C 24.234375 -17.695312 23.644531 -19.613281 22.46875 -21.09375 C 21.289062 -22.570312 19.6875 -23.3125 17.65625 -23.3125 C 15.65625 -23.3125 14.039062 -22.582031 12.8125 -21.125 C 11.582031 -19.664062 10.96875 -17.738281 10.96875 -15.34375 C 10.96875 -12.8125 11.582031 -10.796875 12.8125 -9.296875 C 14.039062 -7.804688 15.65625 -7.0625 17.65625 -7.0625 Z M 17.65625 -7.0625 "/></g></g></g><g fill="#172954" fill-opacity="1"><g transform="translate(416.86638, 79.865949)"><g><path d="M 11.921875 0 L 2.9375 0 L 2.9375 -30.328125 L 11.921875 -30.328125 L 11.921875 -27.0625 C 12.960938 -28.59375 14.113281 -29.625 15.375 -30.15625 C 16.644531 -30.695312 18.082031 -30.96875 19.6875 -30.96875 L 21.015625 -30.96875 L 21.015625 -22.40625 L 19.3125 -22.40625 C 18.0625 -22.40625 17.023438 -22.257812 16.203125 -21.96875 C 15.378906 -21.6875 14.703125 -21.300781 14.171875 -20.8125 C 13.390625 -20.0625 12.816406 -19.050781 12.453125 -17.78125 C 12.097656 -16.519531 11.921875 -14.851562 11.921875 -12.78125 Z M 11.921875 0 "/></g></g></g><g fill="#172954" fill-opacity="1"><g transform="translate(433.977169, 79.865949)"><g><path d="M 17.546875 0.640625 C 14.335938 0.640625 11.546875 -0.0351562 9.171875 -1.390625 C 6.796875 -2.742188 4.957031 -4.585938 3.65625 -6.921875 C 2.363281 -9.253906 1.71875 -11.921875 1.71875 -14.921875 C 1.71875 -16.847656 2.007812 -18.753906 2.59375 -20.640625 C 3.175781 -22.535156 4.101562 -24.265625 5.375 -25.828125 C 6.644531 -27.398438 8.257812 -28.648438 10.21875 -29.578125 C 12.175781 -30.503906 14.53125 -30.96875 17.28125 -30.96875 C 19.269531 -30.96875 21.203125 -30.671875 23.078125 -30.078125 C 24.953125 -29.492188 26.628906 -28.5625 28.109375 -27.28125 C 29.585938 -26 30.765625 -24.332031 31.640625 -22.28125 C 32.515625 -20.226562 32.953125 -17.738281 32.953125 -14.8125 L 32.953125 -13.265625 L 11.125 -13.265625 C 11.375 -11.617188 11.890625 -10.316406 12.671875 -9.359375 C 13.316406 -8.578125 14.09375 -8 15 -7.625 C 15.90625 -7.25 16.914062 -7.0625 18.03125 -7.0625 C 19.382812 -7.0625 20.53125 -7.398438 21.46875 -8.078125 C 22.414062 -8.753906 23.066406 -9.554688 23.421875 -10.484375 L 32.46875 -10.484375 C 31.894531 -8.484375 30.984375 -6.632812 29.734375 -4.9375 C 28.484375 -3.25 26.851562 -1.894531 24.84375 -0.875 C 22.832031 0.132812 20.398438 0.640625 17.546875 0.640625 Z M 11.390625 -19.625 L 23.859375 -19.625 C 23.785156 -19.976562 23.648438 -20.40625 23.453125 -20.90625 C 23.253906 -21.40625 22.90625 -21.890625 22.40625 -22.359375 C 21.769531 -22.992188 21.039062 -23.445312 20.21875 -23.71875 C 19.394531 -23.988281 18.519531 -24.125 17.59375 -24.125 C 16.707031 -24.125 15.84375 -23.988281 15 -23.71875 C 14.164062 -23.445312 13.425781 -22.992188 12.78125 -22.359375 C 12.28125 -21.859375 11.941406 -21.363281 11.765625 -20.875 C 11.585938 -20.394531 11.460938 -19.976562 11.390625 -19.625 Z M 11.390625 -19.625 "/></g></g></g><g fill="#172954" fill-opacity="1"><g transform="translate(210.088594, 122.075711)"><g><path d="M 5.796875 -14.734375 L 0.09375 -14.734375 L 0.09375 -16.21875 L 13.203125 -16.21875 L 13.203125 -14.734375 L 7.5 -14.734375 L 7.5 0 L 5.796875 0 Z M 5.796875 -14.734375 "/></g></g></g><g fill="#172954" fill-opacity="1"><g transform="translate(229.734907, 122.075711)"><g><path d="M 14.109375 -1.484375 L 14.109375 0 L 2.640625 0 L 2.640625 -16.21875 L 13.765625 -16.21875 L 13.765625 -14.734375 L 4.359375 -14.734375 L 4.359375 -8.96875 L 12.75 -8.96875 L 12.75 -7.5 L 4.359375 -7.5 L 4.359375 -1.484375 Z M 14.109375 -1.484375 "/></g></g></g><g fill="#172954" fill-opacity="1"><g transform="translate(251.581935, 122.075711)"><g><path d="M 9.6875 0.140625 C 8.082031 0.140625 6.632812 -0.210938 5.34375 -0.921875 C 4.050781 -1.640625 3.035156 -2.625 2.296875 -3.875 C 1.566406 -5.132812 1.203125 -6.546875 1.203125 -8.109375 C 1.203125 -9.671875 1.566406 -11.082031 2.296875 -12.34375 C 3.035156 -13.601562 4.050781 -14.585938 5.34375 -15.296875 C 6.644531 -16.003906 8.097656 -16.359375 9.703125 -16.359375 C 10.910156 -16.359375 12.023438 -16.15625 13.046875 -15.75 C 14.066406 -15.351562 14.929688 -14.769531 15.640625 -14 L 14.546875 -12.90625 C 13.285156 -14.1875 11.6875 -14.828125 9.75 -14.828125 C 8.46875 -14.828125 7.300781 -14.53125 6.25 -13.9375 C 5.207031 -13.351562 4.382812 -12.550781 3.78125 -11.53125 C 3.1875 -10.519531 2.890625 -9.378906 2.890625 -8.109375 C 2.890625 -6.835938 3.1875 -5.691406 3.78125 -4.671875 C 4.382812 -3.660156 5.207031 -2.859375 6.25 -2.265625 C 7.300781 -1.679688 8.46875 -1.390625 9.75 -1.390625 C 11.695312 -1.390625 13.296875 -2.039062 14.546875 -3.34375 L 15.640625 -2.25 C 14.929688 -1.476562 14.0625 -0.882812 13.03125 -0.46875 C 12.007812 -0.0625 10.894531 0.140625 9.6875 0.140625 Z M 9.6875 0.140625 "/></g></g></g><g fill="#172954" fill-opacity="1"><g transform="translate(274.587242, 122.075711)"><g><path d="M 16.203125 -16.21875 L 16.203125 0 L 14.5 0 L 14.5 -7.484375 L 4.359375 -7.484375 L 4.359375 0 L 2.640625 0 L 2.640625 -16.21875 L 4.359375 -16.21875 L 4.359375 -8.984375 L 14.5 -8.984375 L 14.5 -16.21875 Z M 16.203125 -16.21875 "/></g></g></g><g fill="#172954" fill-opacity="1"><g transform="translate(299.770104, 122.075711)"><g><path d="M 16.203125 -16.21875 L 16.203125 0 L 14.78125 0 L 4.359375 -13.15625 L 4.359375 0 L 2.640625 0 L 2.640625 -16.21875 L 4.0625 -16.21875 L 14.5 -3.0625 L 14.5 -16.21875 Z M 16.203125 -16.21875 "/></g></g></g><g fill="#172954" fill-opacity="1"><g transform="translate(324.952965, 122.075711)"><g><path d="M 9.734375 0.140625 C 8.128906 0.140625 6.671875 -0.21875 5.359375 -0.9375 C 4.054688 -1.65625 3.035156 -2.640625 2.296875 -3.890625 C 1.566406 -5.140625 1.203125 -6.546875 1.203125 -8.109375 C 1.203125 -9.671875 1.566406 -11.078125 2.296875 -12.328125 C 3.035156 -13.578125 4.054688 -14.5625 5.359375 -15.28125 C 6.671875 -16 8.128906 -16.359375 9.734375 -16.359375 C 11.335938 -16.359375 12.785156 -16.003906 14.078125 -15.296875 C 15.367188 -14.585938 16.382812 -13.601562 17.125 -12.34375 C 17.863281 -11.082031 18.234375 -9.671875 18.234375 -8.109375 C 18.234375 -6.546875 17.863281 -5.132812 17.125 -3.875 C 16.382812 -2.625 15.367188 -1.640625 14.078125 -0.921875 C 12.785156 -0.210938 11.335938 0.140625 9.734375 0.140625 Z M 9.734375 -1.390625 C 11.015625 -1.390625 12.171875 -1.675781 13.203125 -2.25 C 14.242188 -2.832031 15.054688 -3.632812 15.640625 -4.65625 C 16.222656 -5.6875 16.515625 -6.835938 16.515625 -8.109375 C 16.515625 -9.378906 16.222656 -10.523438 15.640625 -11.546875 C 15.054688 -12.578125 14.242188 -13.378906 13.203125 -13.953125 C 12.171875 -14.535156 11.015625 -14.828125 9.734375 -14.828125 C 8.453125 -14.828125 7.289062 -14.535156 6.25 -13.953125 C 5.207031 -13.378906 4.382812 -12.578125 3.78125 -11.546875 C 3.1875 -10.523438 2.890625 -9.378906 2.890625 -8.109375 C 2.890625 -6.835938 3.1875 -5.6875 3.78125 -4.65625 C 4.382812 -3.632812 5.207031 -2.832031 6.25 -2.25 C 7.289062 -1.675781 8.453125 -1.390625 9.734375 -1.390625 Z M 9.734375 -1.390625 "/></g></g></g><g fill="#172954" fill-opacity="1"><g transform="translate(350.738125, 122.075711)"><g><path d="M 2.640625 -16.21875 L 4.359375 -16.21875 L 4.359375 -1.484375 L 13.4375 -1.484375 L 13.4375 0 L 2.640625 0 Z M 2.640625 -16.21875 "/></g></g></g><g fill="#172954" fill-opacity="1"><g transform="translate(370.731907, 122.075711)"><g><path d="M 9.734375 0.140625 C 8.128906 0.140625 6.671875 -0.21875 5.359375 -0.9375 C 4.054688 -1.65625 3.035156 -2.640625 2.296875 -3.890625 C 1.566406 -5.140625 1.203125 -6.546875 1.203125 -8.109375 C 1.203125 -9.671875 1.566406 -11.078125 2.296875 -12.328125 C 3.035156 -13.578125 4.054688 -14.5625 5.359375 -15.28125 C 6.671875 -16 8.128906 -16.359375 9.734375 -16.359375 C 11.335938 -16.359375 12.785156 -16.003906 14.078125 -15.296875 C 15.367188 -14.585938 16.382812 -13.601562 17.125 -12.34375 C 17.863281 -11.082031 18.234375 -9.671875 18.234375 -8.109375 C 18.234375 -6.546875 17.863281 -5.132812 17.125 -3.875 C 16.382812 -2.625 15.367188 -1.640625 14.078125 -0.921875 C 12.785156 -0.210938 11.335938 0.140625 9.734375 0.140625 Z M 9.734375 -1.390625 C 11.015625 -1.390625 12.171875 -1.675781 13.203125 -2.25 C 14.242188 -2.832031 15.054688 -3.632812 15.640625 -4.65625 C 16.222656 -5.6875 16.515625 -6.835938 16.515625 -8.109375 C 16.515625 -9.378906 16.222656 -10.523438 15.640625 -11.546875 C 15.054688 -12.578125 14.242188 -13.378906 13.203125 -13.953125 C 12.171875 -14.535156 11.015625 -14.828125 9.734375 -14.828125 C 8.453125 -14.828125 7.289062 -14.535156 6.25 -13.953125 C 5.207031 -13.378906 4.382812 -12.578125 3.78125 -11.546875 C 3.1875 -10.523438 2.890625 -9.378906 2.890625 -8.109375 C 2.890625 -6.835938 3.1875 -5.6875 3.78125 -4.65625 C 4.382812 -3.632812 5.207031 -2.832031 6.25 -2.25 C 7.289062 -1.675781 8.453125 -1.390625 9.734375 -1.390625 Z M 9.734375 -1.390625 "/></g></g></g><g fill="#172954" fill-opacity="1"><g transform="translate(396.517067, 122.075711)"><g><path d="M 14.0625 -8.109375 L 15.703125 -8.109375 L 15.703125 -1.921875 C 14.953125 -1.253906 14.054688 -0.742188 13.015625 -0.390625 C 11.984375 -0.0351562 10.894531 0.140625 9.75 0.140625 C 8.132812 0.140625 6.675781 -0.210938 5.375 -0.921875 C 4.070312 -1.640625 3.050781 -2.625 2.3125 -3.875 C 1.570312 -5.132812 1.203125 -6.546875 1.203125 -8.109375 C 1.203125 -9.671875 1.570312 -11.082031 2.3125 -12.34375 C 3.050781 -13.601562 4.070312 -14.585938 5.375 -15.296875 C 6.675781 -16.003906 8.144531 -16.359375 9.78125 -16.359375 C 11.007812 -16.359375 12.140625 -16.160156 13.171875 -15.765625 C 14.210938 -15.367188 15.085938 -14.785156 15.796875 -14.015625 L 14.734375 -12.9375 C 13.453125 -14.195312 11.820312 -14.828125 9.84375 -14.828125 C 8.53125 -14.828125 7.34375 -14.535156 6.28125 -13.953125 C 5.226562 -13.378906 4.398438 -12.578125 3.796875 -11.546875 C 3.191406 -10.523438 2.890625 -9.378906 2.890625 -8.109375 C 2.890625 -6.835938 3.191406 -5.691406 3.796875 -4.671875 C 4.398438 -3.660156 5.226562 -2.859375 6.28125 -2.265625 C 7.332031 -1.679688 8.515625 -1.390625 9.828125 -1.390625 C 11.492188 -1.390625 12.90625 -1.804688 14.0625 -2.640625 Z M 14.0625 -8.109375 "/></g></g></g><g fill="#172954" fill-opacity="1"><g transform="translate(420.77332, 122.075711)"><g><path d="M 8.203125 -5.609375 L 8.203125 0 L 6.515625 0 L 6.515625 -5.609375 L 0.015625 -16.21875 L 1.859375 -16.21875 L 7.421875 -7.109375 L 12.96875 -16.21875 L 14.6875 -16.21875 Z M 8.203125 -5.609375 "/></g></g></g></svg>